name rise43.5482peak65.4966fall89.1036.mot
datacolumns 19
datarows 14
range 8.67163300000000 8.69330000000000
endheader
time	ground_force1_vx	ground_force1_vy	ground_force1_vz	ground_force1_px	ground_force1_py	ground_force1_pz	ground_force2_vx	ground_force2_vy	ground_force2_vz	ground_force2_px	ground_force2_py	ground_force2_pz	ground_torque1_x	ground_torque1_y	ground_torque1_z	ground_torque2_x	ground_torque2_y	ground_torque2_z	
8.67163300000000	-10.62243900000000	40.94334000000000	-8.39976000000000	0.28473400000000	0.00000000000000	0.10185700000000	-64.10587000000000	791.07674899999995	-44.83233000000000	0.08190900000000	0.00000000000000	-0.07169800000000	0.00000000000000	-3.76019500000000	0.00000000000000	0.00000000000000	-15.59611000000000	0.00000000000000	
8.67329800000000	-11.58484400000000	48.01047500000000	-9.37833900000000	0.28871500000000	0.00000000000000	0.10285700000000	-65.20797399999999	787.71318900000006	-44.42741100000000	0.08078800000000	0.00000000000000	-0.07157500000000	0.00000000000000	-4.27894200000000	0.00000000000000	0.00000000000000	-15.61188600000000	0.00000000000000	
8.67496100000000	-12.33154000000000	55.17674200000000	-10.24319400000000	0.29248200000000	0.00000000000000	0.10375500000000	-66.30600699999999	784.18981299999996	-44.00734900000000	0.07967200000000	0.00000000000000	-0.07145000000000	0.00000000000000	-4.76594300000000	0.00000000000000	0.00000000000000	-15.62793100000000	0.00000000000000	
8.67663300000000	-12.83465100000000	62.35227500000000	-10.97191600000000	0.29606400000000	0.00000000000000	0.10456700000000	-67.39788100000000	780.50338699999998	-43.57202600000000	0.07856200000000	0.00000000000000	-0.07132400000000	0.00000000000000	-5.21012300000000	0.00000000000000	0.00000000000000	-15.64397500000000	0.00000000000000	
8.67829400000000	-13.07870300000000	69.46966000000000	-11.55009800000000	0.29948300000000	0.00000000000000	0.10530600000000	-68.48143399999999	776.65074300000003	-43.12134800000000	0.07746000000000	0.00000000000000	-0.07119600000000	0.00000000000000	-5.60344300000000	0.00000000000000	0.00000000000000	-15.65973400000000	0.00000000000000	
8.67996700000000	-13.06032700000000	76.48603900000001	-11.97136500000000	0.30275400000000	0.00000000000000	0.10598200000000	-69.55443200000001	772.62878799999999	-42.65523900000000	0.07636600000000	0.00000000000000	-0.07106700000000	0.00000000000000	-5.94106500000000	0.00000000000000	0.00000000000000	-15.67491200000000	0.00000000000000	
8.68162900000000	-12.78703200000000	83.38284700000000	-12.23673800000000	0.30589400000000	0.00000000000000	0.10660300000000	-70.61457799999999	768.43451900000002	-42.17365000000000	0.07528000000000	0.00000000000000	-0.07093600000000	0.00000000000000	-6.22124800000000	0.00000000000000	0.00000000000000	-15.68920300000000	0.00000000000000	
8.68330100000000	-12.27529100000000	90.16358600000000	-12.35350400000000	0.30891200000000	0.00000000000000	0.10717500000000	-71.65951000000000	764.06503799999996	-41.67655400000000	0.07420500000000	0.00000000000000	-0.07080300000000	0.00000000000000	-6.44498700000000	0.00000000000000	0.00000000000000	-15.70229000000000	0.00000000000000	
8.68496000000000	-11.54821800000000	96.85017000000001	-12.33376100000000	0.31181900000000	0.00000000000000	0.10770400000000	-72.68681500000000	759.51756399999999	-41.16395500000000	0.07314100000000	0.00000000000000	-0.07066800000000	0.00000000000000	-6.61550800000000	0.00000000000000	0.00000000000000	-15.71384700000000	0.00000000000000	
8.68663300000000	-10.63310000000000	103.47838100000000	-12.19282800000000	0.31462200000000	0.00000000000000	0.10819600000000	-73.69403200000001	754.78945199999998	-40.63588100000000	0.07208900000000	0.00000000000000	-0.07053100000000	0.00000000000000	-6.73765300000000	0.00000000000000	0.00000000000000	-15.72354000000000	0.00000000000000	
8.68829900000000	-9.55901100000000	110.09297599999999	-11.94766400000000	0.31732600000000	0.00000000000000	0.10865500000000	-74.67865600000000	749.87820799999997	-40.09239300000000	0.07104900000000	0.00000000000000	-0.07039200000000	0.00000000000000	-6.81724100000000	0.00000000000000	0.00000000000000	-15.73102800000000	0.00000000000000	
8.68996500000000	-8.35468400000000	116.74290300000000	-11.61542000000000	0.31993700000000	0.00000000000000	0.10908300000000	-75.63814700000000	744.78150600000004	-39.53358500000000	0.07002300000000	0.00000000000000	-0.07025100000000	0.00000000000000	-6.86046000000000	0.00000000000000	0.00000000000000	-15.73596300000000	0.00000000000000	
8.69162600000000	-7.04677400000000	123.47697500000000	-11.21223900000000	0.32246000000000	0.00000000000000	0.10948500000000	-76.56994100000000	739.49720200000002	-38.95958200000000	0.06901100000000	0.00000000000000	-0.07010800000000	0.00000000000000	-6.87332700000000	0.00000000000000	0.00000000000000	-15.73799500000000	0.00000000000000	
8.69330000000000	-5.65857500000000	130.34029100000001	-10.75232300000000	0.32489600000000	0.00000000000000	0.10986100000000	-77.47144800000000	734.02335800000003	-38.37054300000000	0.06801400000000	0.00000000000000	-0.06996200000000	0.00000000000000	-6.86125700000000	0.00000000000000	0.00000000000000	-15.73676800000000	0.00000000000000	
